<svg width="120" height="120" viewBox="0 0 120 120" fill="none" xmlns="http://www.w3.org/2000/svg">
<circle cx="60" cy="60" r="60" fill="#C71444"/>
<path fill-rule="evenodd" clip-rule="evenodd" d="M86.9203 36.8873L86.8406 36.8076L49.5165 74.1317L33.1924 57.8076L33.0962 57.9038C31.9199 56.7275 30.2949 56 28.5 56C24.9101 56 22 58.9101 22 62.5C22 64.7747 23.1685 66.7766 24.938 67.938L45.2132 88.2132L49.3033 84.1231L53.6066 88.4264L95.1619 46.8711C96.8754 45.7006 98 43.7316 98 41.5C98 37.9101 95.0899 35 91.5 35C89.7135 35 88.0953 35.7207 86.9203 36.8873Z" fill="white"/>
<circle r="6.5" transform="matrix(-1 0 0 1 49.5 83.5)" fill="white"/>
</svg>
