<svg width="309" height="201" viewBox="0 0 309 201" fill="none" xmlns="http://www.w3.org/2000/svg">
<g filter="url(#filter0_d_144_332)">
<rect x="30" y="20" width="249" height="140.062" rx="20" fill="#343434"/>
<rect x="34.6687" y="24.6688" width="239.663" height="130.725" rx="14" fill="white"/>
<rect x="35" y="25" width="239.663" height="130.725" rx="14" fill="url(#paint0_linear_144_332)"/>
<path fill-rule="evenodd" clip-rule="evenodd" d="M41.657 65.1313C41.4584 62.5197 39.2764 60.4625 36.614 60.4625C33.9515 60.4625 31.7696 62.5197 31.5709 65.1313H31.5562V65.5203V112.597H31.6915C31.603 112.972 31.5562 113.362 31.5562 113.764C31.5562 116.557 33.8206 118.822 36.614 118.822C39.4073 118.822 41.6718 116.557 41.6718 113.764C41.6718 113.362 41.6249 112.972 41.5364 112.597H41.6718V65.5235C41.6718 65.5224 41.6718 65.5214 41.6718 65.5203C41.6718 65.5193 41.6718 65.5182 41.6718 65.5172V65.1313H41.657Z" fill="#343434"/>
<g filter="url(#filter1_d_144_332)">
<g clip-path="url(#clip0_144_332)">
<path fill-rule="evenodd" clip-rule="evenodd" d="M222.831 51.9215C222.831 47.7899 219.498 44.4404 215.387 44.4404H87.2654C83.1537 44.4404 79.8208 47.7899 79.8208 51.9215V58.142H222.831V51.9215Z" fill="#666666"/>
<path fill-rule="evenodd" clip-rule="evenodd" d="M120.635 53.9151C120.36 54.031 119.912 54.1726 119.226 54.1726C118.067 54.1726 116.767 53.5869 116.767 52.0421C116.767 50.5295 117.932 49.8344 119.239 49.8344C119.707 49.8344 120.264 49.9502 120.603 50.1047V50.7355C120.181 50.5166 119.713 50.4008 119.226 50.4008C118.214 50.4008 117.401 50.9414 117.401 52.0357C117.401 53.1749 118.387 53.6062 119.271 53.6062C119.803 53.6062 120.085 53.5418 120.635 53.323V53.9151ZM91.1267 52.0099C91.1267 53.4968 89.9994 54.0954 88.7889 54.0954H87.4246V49.9116H88.8401C90.0507 49.9116 91.1267 50.4523 91.1267 52.0099ZM88.0266 53.5418H88.6608C89.8905 53.5418 90.467 52.9625 90.467 52.0035C90.467 51.0637 89.9546 50.4651 88.7184 50.4651H88.0266V53.5418ZM92.5935 54.0954V52.5635H93.5094C93.9642 53.0462 94.419 53.6126 94.7456 54.0954H95.5463C95.0915 53.471 94.6175 52.8917 94.2589 52.5055C94.7649 52.3768 95.2837 51.9777 95.2837 51.2118C95.2837 50.1304 94.2589 49.9116 93.74 49.9116H91.9914V54.0954H92.5935ZM92.5935 52.0099H93.6568C94.0603 52.0099 94.656 51.8941 94.656 51.2311C94.656 50.6518 94.1756 50.4651 93.6824 50.4651H92.5935V52.0099ZM96.821 54.0954V49.9116H96.2189V54.0954H96.821ZM101.612 49.9116C100.875 52.1451 99.9851 53.8186 99.8122 54.0954H99.1012C98.8258 53.6448 97.929 51.8233 97.3013 49.9116H97.9483C98.07 50.3171 98.8578 52.4219 99.4663 53.5483C100.093 52.4329 100.549 51.1447 100.958 49.9858L100.984 49.9116H101.612ZM105.032 54.0954V53.5418H102.694V52.2159H104.847V51.6688H102.694V50.4651H105.032V49.9116H102.092V54.0954H105.032ZM106.531 52.5635V54.0954H105.929V49.9116H107.678C108.197 49.9116 109.221 50.1304 109.221 51.2118C109.221 51.9777 108.703 52.3768 108.197 52.5055C108.555 52.8917 109.029 53.471 109.484 54.0954H108.683C108.357 53.6126 107.902 53.0462 107.447 52.5635H106.531ZM107.594 52.0099H106.531V50.4651H107.62C108.113 50.4651 108.594 50.6518 108.594 51.2311C108.594 51.8941 107.998 52.0099 107.594 52.0099ZM114.755 53.5418V54.0954H111.764V49.9116H112.366V53.5418H114.755ZM115.934 54.0954V49.9116H115.332V54.0954H115.934ZM131.959 54.1726C132.645 54.1726 133.093 54.031 133.369 53.9151V53.323C132.818 53.5418 132.536 53.6062 132.004 53.6062C131.12 53.6062 130.134 53.1749 130.134 52.0357C130.134 50.9414 130.947 50.4008 131.959 50.4008C132.446 50.4008 132.914 50.5166 133.337 50.7355V50.1047C132.997 49.9502 132.44 49.8344 131.972 49.8344C130.666 49.8344 129.5 50.5295 129.5 52.0421C129.5 53.5869 130.8 54.1726 131.959 54.1726ZM124.408 53.5418V54.0954H121.468V49.9116H124.408V50.4651H122.07V51.6688H124.222V52.2159H122.07V53.5418H124.408ZM125.9 54.0954V50.7226L128.424 54.0954H128.93V49.9116H128.334V53.0398L125.996 49.9116H125.305V54.0954H125.9ZM136.94 53.5418V54.0954H134V49.9116H136.94V50.4651H134.602V51.6688H136.754V52.2159H134.602V53.5418H136.94Z" fill="white"/>
<path fill-rule="evenodd" clip-rule="evenodd" d="M79.8208 58.1419V128.911C79.8208 133.043 83.1539 136.392 87.2654 136.392H215.387C219.498 136.392 222.831 133.043 222.831 128.911V58.1419H79.8208Z" fill="#F5F6FA"/>
<path fill-rule="evenodd" clip-rule="evenodd" d="M169.365 122.097H216.504V69.1028H169.365V122.097Z" fill="#DCDDE1"/>
<path fill-rule="evenodd" clip-rule="evenodd" d="M207.741 109.246C207.741 108.145 204.763 105.52 197.839 103.165V98.4543C197.839 98.4543 199.958 96.6862 199.958 93.546C200.823 93.546 201.688 90.4071 199.958 89.6214C199.958 89.1557 201.183 86.539 199.453 83.2931C197.417 79.4725 188.563 80.1448 187.1 83.0661C185.035 86.1838 186.11 88.9851 186.11 89.6214C184.381 90.4071 185.245 93.546 186.11 93.546C186.11 96.6862 188.23 98.1841 188.23 98.1841V103.165C181.306 105.52 178.327 108.029 178.327 109.246C178.327 112.493 207.741 113.095 207.741 109.246Z" fill="#C71444"/>
<path fill-rule="evenodd" clip-rule="evenodd" d="M105.659 118.377C105.57 119.053 105.39 119.715 105.12 120.339C104.884 120.885 104.59 121.459 104.145 121.863C103.929 122.059 103.664 122.215 103.371 122.25C103.146 122.277 103.051 122.14 102.979 121.951C102.936 121.838 102.905 121.721 102.887 121.601C102.81 121.107 102.944 120.59 103.218 120.177C103.518 119.724 104.02 119.381 104.573 119.367C105.263 119.349 105.663 119.959 106.004 120.47C106.295 120.907 106.643 121.361 107.195 121.443C107.408 121.474 107.635 121.444 107.816 121.32C107.922 121.247 107.952 121.127 108.006 121.012C108.08 120.852 108.158 120.693 108.238 120.536C108.569 119.892 108.951 119.275 109.379 118.693C109.796 118.126 110.264 117.477 110.942 117.216C110.924 117.202 110.905 117.188 110.886 117.173C111.051 118.786 111.064 120.408 111.075 122.028C111.075 122.065 111.124 122.088 111.15 122.059C111.888 121.268 112.625 120.477 113.363 119.685C113.702 119.322 114.048 118.969 114.539 118.827C115.004 118.691 115.499 118.721 115.977 118.751C115.97 118.723 115.962 118.695 115.955 118.668C114.459 119.477 113.195 120.685 112.313 122.144C112.286 122.189 112.346 122.232 112.382 122.198C113.192 121.449 113.86 120.572 114.555 119.72C115.181 118.954 115.866 118.202 116.777 117.781C116.762 117.756 116.747 117.73 116.732 117.704C115.8 118.267 115.137 119.191 114.498 120.053C113.794 121.003 113.139 121.991 112.54 123.01C111.95 124.015 111.379 125.049 110.963 126.14C110.757 126.682 110.619 127.235 110.49 127.799C110.369 128.33 110.215 128.851 109.888 129.294C109.229 130.189 108.109 130.645 107.035 130.757C107.05 130.776 107.064 130.795 107.078 130.814C107.292 130.015 107.799 129.299 108.268 128.63C108.719 127.987 109.212 127.372 109.742 126.792C110.783 125.653 111.964 124.644 113.253 123.799C113.57 123.592 113.892 123.394 114.221 123.207C114.564 123.012 114.933 122.847 115.241 122.597C115.57 122.332 115.829 121.983 116.093 121.655C116.364 121.319 116.649 120.984 116.894 120.629C116.971 120.517 117.049 120.374 116.991 120.235C116.935 120.101 116.788 120.051 116.657 120.022C116.248 119.93 115.819 119.927 115.402 119.962C114.514 120.036 113.629 120.25 112.765 120.464C110.799 120.95 108.883 121.614 106.971 122.277C106.985 122.302 107 122.327 107.014 122.352C107.713 121.488 108.602 120.819 109.485 120.16C109.522 120.132 109.502 120.058 109.451 120.078C107.667 120.767 105.91 121.529 104.189 122.363C103.696 122.602 103.205 122.847 102.718 123.098C102.679 123.118 102.697 123.184 102.74 123.181C103.972 123.11 105.118 122.573 106.076 121.811C107.113 120.985 107.905 119.902 108.577 118.768C108.979 118.091 109.341 117.39 109.703 116.69C109.729 116.639 109.652 116.593 109.626 116.645C108.449 118.924 107.148 121.384 104.743 122.554C104.116 122.86 103.437 123.052 102.74 123.092C102.747 123.12 102.755 123.147 102.762 123.175C104.466 122.3 106.204 121.494 107.974 120.763C108.472 120.558 108.972 120.358 109.474 120.164C109.463 120.137 109.452 120.11 109.44 120.083C108.551 120.746 107.655 121.42 106.951 122.289C106.926 122.32 106.949 122.379 106.995 122.363C108.639 121.793 110.286 121.222 111.966 120.764C112.805 120.535 113.652 120.333 114.507 120.177C114.953 120.097 115.403 120.031 115.857 120.031C116.089 120.031 116.322 120.049 116.55 120.091C116.64 120.108 116.74 120.123 116.819 120.172C116.991 120.278 116.905 120.457 116.817 120.584C116.566 120.949 116.273 121.292 115.995 121.636C115.742 121.949 115.494 122.281 115.179 122.534C114.858 122.792 114.469 122.962 114.113 123.166C113.792 123.35 113.477 123.545 113.168 123.748C111.942 124.556 110.813 125.512 109.811 126.587C109.248 127.191 108.725 127.833 108.247 128.506C107.753 129.204 107.216 129.954 106.992 130.79C106.986 130.816 107.006 130.85 107.035 130.847C107.944 130.752 108.856 130.426 109.543 129.806C109.883 129.498 110.151 129.12 110.322 128.692C110.541 128.145 110.617 127.553 110.776 126.987C111.098 125.836 111.655 124.763 112.234 123.724C112.819 122.675 113.46 121.657 114.155 120.677C114.543 120.13 114.944 119.589 115.371 119.071C115.779 118.577 116.227 118.114 116.777 117.781C116.827 117.751 116.783 117.681 116.732 117.704C115.83 118.12 115.145 118.861 114.523 119.619C113.816 120.483 113.142 121.375 112.32 122.135C112.343 122.153 112.366 122.171 112.389 122.189C113.264 120.742 114.517 119.547 116 118.744C116.041 118.722 116.019 118.664 115.977 118.662C115.507 118.633 115.023 118.606 114.563 118.728C114.09 118.853 113.737 119.158 113.408 119.507C112.63 120.333 111.861 121.167 111.088 121.996C111.113 122.007 111.138 122.017 111.164 122.028C111.153 120.408 111.14 118.786 110.975 117.173C110.972 117.148 110.948 117.119 110.919 117.13C110.319 117.361 109.901 117.87 109.517 118.364C109.087 118.918 108.7 119.504 108.361 120.117C108.19 120.426 108.031 120.742 107.885 121.063C107.804 121.241 107.674 121.326 107.483 121.356C107.326 121.381 107.163 121.358 107.013 121.307C106.38 121.093 106.108 120.394 105.718 119.909C105.536 119.682 105.316 119.474 105.044 119.362C104.751 119.242 104.426 119.261 104.129 119.358C103.659 119.511 103.277 119.864 103.043 120.296C102.813 120.72 102.719 121.224 102.814 121.7C102.854 121.898 102.929 122.21 103.125 122.311C103.338 122.42 103.656 122.289 103.848 122.186C104.448 121.863 104.817 121.196 105.098 120.601C105.43 119.899 105.647 119.148 105.747 118.377C105.755 118.321 105.666 118.321 105.659 118.377" fill="#576573"/>
<path fill-rule="evenodd" clip-rule="evenodd" d="M87.0466 70.6254H96.7421V67.8851H87.0466V70.6254Z" fill="#8A8A8A"/>
<path fill-rule="evenodd" clip-rule="evenodd" d="M87.1411 77.5428H133.807V74.7843H87.1411V77.5428Z" fill="#DCDDE1"/>
<path fill-rule="evenodd" clip-rule="evenodd" d="M87.1411 84.4392H153.938V81.6807H87.1411V84.4392Z" fill="#DCDDE1"/>
<path fill-rule="evenodd" clip-rule="evenodd" d="M87.1411 91.7953H103.154V89.0367H87.1411V91.7953Z" fill="#8A8A8A"/>
<path fill-rule="evenodd" clip-rule="evenodd" d="M87.1411 98.6916H153.48V95.9331H87.1411V98.6916Z" fill="#DCDDE1"/>
<path fill-rule="evenodd" clip-rule="evenodd" d="M139.633 102.37L139.633 112.484L141.079 112.484L141.079 102.37L139.633 102.37Z" fill="#C1C1C1"/>
<path fill-rule="evenodd" clip-rule="evenodd" d="M135.779 102.37L135.779 112.484L139.152 112.484L139.152 102.37L135.779 102.37Z" fill="#C1C1C1"/>
<path fill-rule="evenodd" clip-rule="evenodd" d="M117.952 102.37L117.952 112.484L121.325 112.484L121.325 102.37L117.952 102.37Z" fill="#C1C1C1"/>
<path fill-rule="evenodd" clip-rule="evenodd" d="M101.089 102.37L101.089 112.484L104.462 112.484L104.462 102.37L101.089 102.37Z" fill="#C1C1C1"/>
<path fill-rule="evenodd" clip-rule="evenodd" d="M87.5987 102.37L87.5987 112.484L90.9712 112.484L90.9712 102.37L87.5987 102.37Z" fill="#C1C1C1"/>
<path fill-rule="evenodd" clip-rule="evenodd" d="M141.561 102.37L141.561 112.484L142.042 112.484L142.042 102.37L141.561 102.37Z" fill="#C1C1C1"/>
<path fill-rule="evenodd" clip-rule="evenodd" d="M134.815 102.37L134.815 112.484L135.297 112.484L135.297 102.37L134.815 102.37Z" fill="#C1C1C1"/>
<path fill-rule="evenodd" clip-rule="evenodd" d="M131.443 102.37L131.443 112.484L131.925 112.484L131.925 102.37L131.443 102.37Z" fill="#C1C1C1"/>
<path fill-rule="evenodd" clip-rule="evenodd" d="M128.07 102.37L128.07 112.484L128.552 112.484L128.552 102.37L128.07 102.37Z" fill="#C1C1C1"/>
<path fill-rule="evenodd" clip-rule="evenodd" d="M124.697 102.37L124.697 112.484L125.179 112.484L125.179 102.37L124.697 102.37Z" fill="#C1C1C1"/>
<path fill-rule="evenodd" clip-rule="evenodd" d="M126.625 102.37L126.625 112.484L127.107 112.484L127.107 102.37L126.625 102.37Z" fill="#C1C1C1"/>
<path fill-rule="evenodd" clip-rule="evenodd" d="M121.325 102.37L121.325 112.484L121.807 112.484L121.807 102.37L121.325 102.37Z" fill="#C1C1C1"/>
<path fill-rule="evenodd" clip-rule="evenodd" d="M117.952 102.37L117.952 112.484L118.434 112.484L118.434 102.37L117.952 102.37Z" fill="#C1C1C1"/>
<path fill-rule="evenodd" clip-rule="evenodd" d="M114.58 102.37L114.58 112.484L115.062 112.484L115.062 102.37L114.58 102.37Z" fill="#C1C1C1"/>
<path fill-rule="evenodd" clip-rule="evenodd" d="M115.543 102.37L115.543 112.484L116.025 112.484L116.025 102.37L115.543 102.37Z" fill="#C1C1C1"/>
<path fill-rule="evenodd" clip-rule="evenodd" d="M113.616 102.37L113.616 112.484L114.098 112.484L114.098 102.37L113.616 102.37Z" fill="#C1C1C1"/>
<path fill-rule="evenodd" clip-rule="evenodd" d="M111.207 102.37L111.207 112.484L111.689 112.484L111.689 102.37L111.207 102.37Z" fill="#C1C1C1"/>
<path fill-rule="evenodd" clip-rule="evenodd" d="M110.725 102.37L110.725 112.484L111.207 112.484L111.207 102.37L110.725 102.37Z" fill="#C1C1C1"/>
<path fill-rule="evenodd" clip-rule="evenodd" d="M107.834 102.37L107.834 112.484L108.316 112.484L108.316 102.37L107.834 102.37Z" fill="#C1C1C1"/>
<path fill-rule="evenodd" clip-rule="evenodd" d="M95.3072 102.37L95.3072 112.484L95.7891 112.484L95.7891 102.37L95.3072 102.37Z" fill="#C1C1C1"/>
<path fill-rule="evenodd" clip-rule="evenodd" d="M99.162 102.37L99.162 112.484L99.6438 112.484L99.6438 102.37L99.162 102.37Z" fill="#C1C1C1"/>
<path fill-rule="evenodd" clip-rule="evenodd" d="M108.798 102.37L108.798 112.484L109.28 112.484L109.28 102.37L108.798 102.37Z" fill="#C1C1C1"/>
<path fill-rule="evenodd" clip-rule="evenodd" d="M104.462 102.37L104.462 112.484L104.944 112.484L104.944 102.37L104.462 102.37Z" fill="#C1C1C1"/>
<path fill-rule="evenodd" clip-rule="evenodd" d="M101.089 102.37L101.089 112.484L101.571 112.484L101.571 102.37L101.089 102.37Z" fill="#C1C1C1"/>
<path fill-rule="evenodd" clip-rule="evenodd" d="M97.7164 102.37L97.7164 112.484L98.1982 112.484L98.1982 102.37L97.7164 102.37Z" fill="#C1C1C1"/>
<path fill-rule="evenodd" clip-rule="evenodd" d="M128.07 102.37L128.07 112.484L129.516 112.484L129.516 102.37L128.07 102.37Z" fill="#C1C1C1"/>
<path fill-rule="evenodd" clip-rule="evenodd" d="M122.289 102.37L122.289 112.484L123.734 112.484L123.734 102.37L122.289 102.37Z" fill="#C1C1C1"/>
<path fill-rule="evenodd" clip-rule="evenodd" d="M132.888 102.37L132.888 112.484L134.334 112.484L134.334 102.37L132.888 102.37Z" fill="#C1C1C1"/>
<path fill-rule="evenodd" clip-rule="evenodd" d="M129.516 102.37L129.516 112.484L130.961 112.484L130.961 102.37L129.516 102.37Z" fill="#C1C1C1"/>
<path fill-rule="evenodd" clip-rule="evenodd" d="M116.507 102.37L116.507 112.484L117.952 112.484L117.952 102.37L116.507 102.37Z" fill="#C1C1C1"/>
<path fill-rule="evenodd" clip-rule="evenodd" d="M104.944 102.37L104.944 112.484L106.389 112.484L106.389 102.37L104.944 102.37Z" fill="#C1C1C1"/>
<path fill-rule="evenodd" clip-rule="evenodd" d="M96.2714 102.37L96.2714 112.484L97.7166 112.484L97.7166 102.37L96.2714 102.37Z" fill="#C1C1C1"/>
<path fill-rule="evenodd" clip-rule="evenodd" d="M101.571 102.37L101.571 112.484L103.016 112.484L103.016 102.37L101.571 102.37Z" fill="#C1C1C1"/>
<path fill-rule="evenodd" clip-rule="evenodd" d="M93.3802 102.37L93.3802 112.484L94.8257 112.484L94.8257 102.37L93.3802 102.37Z" fill="#C1C1C1"/>
<path fill-rule="evenodd" clip-rule="evenodd" d="M91.4533 102.37L91.4533 112.484L92.8984 112.484L92.8984 102.37L91.4533 102.37Z" fill="#C1C1C1"/>
</g>
</g>
<path fill-rule="evenodd" clip-rule="evenodd" d="M72.8958 39V63.3445H66.8958V33.3795H67.0001L67.0001 33H96.9651V39L72.8958 39Z" fill="#C71444"/>
<path fill-rule="evenodd" clip-rule="evenodd" d="M65.9556 147.977V147.169V141.977V117.204H71.9556V141.977L95.9206 141.977V147.977H65.9556Z" fill="#C71444"/>
<path fill-rule="evenodd" clip-rule="evenodd" d="M228.797 39.3794L204.024 39.3794L204.024 33.3794L233.989 33.3794L233.989 33.3794L234.797 33.3794L234.797 63.3445L228.797 63.3445L228.797 39.3794Z" fill="#C71444"/>
<g filter="url(#filter2_d_144_332)">
<ellipse cx="224.27" cy="121.973" rx="27.9734" ry="27.9734" transform="rotate(90 224.27 121.973)" fill="#C71444"/>
</g>
<path d="M219.529 129.969L238.585 110.931L240.466 112.81L219.504 133.752L209.548 123.443L211.453 121.591L219.529 129.969Z" stroke="white" stroke-width="6"/>
</g>
<defs>
<filter id="filter0_d_144_332" x="0" y="0" width="309" height="200.062" filterUnits="userSpaceOnUse" color-interpolation-filters="sRGB">
<feFlood flood-opacity="0" result="BackgroundImageFix"/>
<feColorMatrix in="SourceAlpha" type="matrix" values="0 0 0 0 0 0 0 0 0 0 0 0 0 0 0 0 0 0 127 0" result="hardAlpha"/>
<feOffset dy="10"/>
<feGaussianBlur stdDeviation="15"/>
<feComposite in2="hardAlpha" operator="out"/>
<feColorMatrix type="matrix" values="0 0 0 0 0 0 0 0 0 0 0 0 0 0 0 0 0 0 0.35 0"/>
<feBlend mode="normal" in2="BackgroundImageFix" result="effect1_dropShadow_144_332"/>
<feBlend mode="normal" in="SourceGraphic" in2="effect1_dropShadow_144_332" result="shape"/>
</filter>
<filter id="filter1_d_144_332" x="76" y="41" width="150" height="99" filterUnits="userSpaceOnUse" color-interpolation-filters="sRGB">
<feFlood flood-opacity="0" result="BackgroundImageFix"/>
<feColorMatrix in="SourceAlpha" type="matrix" values="0 0 0 0 0 0 0 0 0 0 0 0 0 0 0 0 0 0 127 0" result="hardAlpha"/>
<feOffset/>
<feGaussianBlur stdDeviation="2"/>
<feComposite in2="hardAlpha" operator="out"/>
<feColorMatrix type="matrix" values="0 0 0 0 0 0 0 0 0 0 0 0 0 0 0 0 0 0 0.25 0"/>
<feBlend mode="normal" in2="BackgroundImageFix" result="effect1_dropShadow_144_332"/>
<feBlend mode="normal" in="SourceGraphic" in2="effect1_dropShadow_144_332" result="shape"/>
</filter>
<filter id="filter2_d_144_332" x="192.297" y="90" width="63.9468" height="63.9469" filterUnits="userSpaceOnUse" color-interpolation-filters="sRGB">
<feFlood flood-opacity="0" result="BackgroundImageFix"/>
<feColorMatrix in="SourceAlpha" type="matrix" values="0 0 0 0 0 0 0 0 0 0 0 0 0 0 0 0 0 0 127 0" result="hardAlpha"/>
<feOffset/>
<feGaussianBlur stdDeviation="2"/>
<feComposite in2="hardAlpha" operator="out"/>
<feColorMatrix type="matrix" values="0 0 0 0 0 0 0 0 0 0 0 0 0 0 0 0 0 0 0.25 0"/>
<feBlend mode="normal" in2="BackgroundImageFix" result="effect1_dropShadow_144_332"/>
<feBlend mode="normal" in="SourceGraphic" in2="effect1_dropShadow_144_332" result="shape"/>
</filter>
<linearGradient id="paint0_linear_144_332" x1="38.3312" y1="30.8313" x2="274.331" y2="155.331" gradientUnits="userSpaceOnUse">
<stop stop-color="#E0DDDD"/>
<stop offset="1" stop-color="#F5F5F5"/>
</linearGradient>
<clipPath id="clip0_144_332">
<rect x="80" y="45" width="142" height="91" rx="10" fill="white"/>
</clipPath>
</defs>
</svg>
