<svg width="373" height="260" viewBox="0 0 373 260" fill="none" xmlns="http://www.w3.org/2000/svg">
<g filter="url(#filter0_d_144_621)">
<g clip-path="url(#clip0_144_621)">
<g filter="url(#filter1_d_144_621)">
<g clip-path="url(#clip1_144_621)">
<path fill-rule="evenodd" clip-rule="evenodd" d="M343 26.2719C343 17.2854 335.705 10 326.707 10H46.2937C37.2945 10 30 17.2854 30 26.2719V39.8018H343V26.2719Z" fill="#F5F6FA"/>
<path fill-rule="evenodd" clip-rule="evenodd" d="M30 39.8016V193.728C30 202.716 37.2951 210 46.2937 210H326.707C335.705 210 343 202.716 343 193.728V39.8016H30Z" fill="#F5F6FA"/>
<path opacity="0.75" fill-rule="evenodd" clip-rule="evenodd" d="M238.787 113.783L235.537 116.086C235.411 116.174 235.27 116.238 235.118 116.269L229.681 117.419C229.421 117.474 229.151 117.436 228.916 117.312L224.424 114.919C224.058 114.724 223.829 114.343 223.829 113.929V111.524C223.829 111.105 224.063 110.722 224.435 110.528L225.551 109.95V106.15L221.395 94.7848L220.363 91.0869C220.255 90.704 220.36 90.2937 220.636 90.0074L221.809 88.793L219.221 85.3011C219.007 85.013 218.945 84.641 219.051 84.3L221.156 77.5934C221.234 77.3454 221.395 77.132 221.613 76.9898L228.828 72.278C228.883 72.2416 231.156 71.4812 235.649 69.9933C235.713 69.9732 237.012 69.8911 239.546 69.7453L242.463 65.1411V62.9766C242.463 62.6575 242.6 62.3512 242.84 62.1397L244.421 60.7338C244.604 60.5715 244.838 60.4712 245.084 60.453L247.435 60.2706L251.397 54.8842C251.534 54.6945 251.728 54.5559 251.951 54.4812L255.831 53.2029C256.2 53.0808 256.607 53.1574 256.907 53.4072L259.86 55.8634H261.837L264.34 50.0593C264.43 49.8496 264.581 49.6728 264.775 49.5524L269.566 46.5601C269.879 46.3632 270.271 46.334 270.611 46.4817L277.215 49.3318L281.951 48.3289C282.828 48.1429 283.56 49.0017 283.236 49.8332L280.483 56.8918L284.714 60.6517L290.757 63.9212L292.469 61.2188L292.899 54.2022L294.848 44.8971C295.057 43.9034 296.378 43.6754 296.911 44.5416L300.148 49.8077C300.201 49.8916 300.241 49.9827 300.269 50.0794L301.637 54.7529L304.21 55.9746C304.503 56.1132 304.721 56.3721 304.81 56.6821L306.512 62.6776L307.758 67.0684L314.068 71.2879C314.299 71.4411 314.463 71.6745 314.533 71.9425L315.146 74.3513L318.926 77.4639C319.054 77.5697 319.159 77.7028 319.228 77.8541L321.265 82.1976L325.351 86.2C325.527 86.3715 325.64 86.5957 325.675 86.8383L326.985 95.7403C327.002 95.8534 327.002 95.9683 326.982 96.0813L325.448 105.58C325.421 105.749 325.355 105.91 325.256 106.048L321.001 112.051L318.101 120.182L317.667 124.248C317.614 124.74 317.246 125.14 316.758 125.231L311.067 126.309L307.55 129.543C307.169 129.893 306.598 129.939 306.166 129.656L303.198 127.709L301.266 129.625C300.925 129.965 300.406 130.048 299.972 129.837L295.602 127.687L290.852 126.932C290.431 126.867 290.083 126.568 289.955 126.163L287.713 119.09H286.25C285.675 119.09 285.194 118.659 285.13 118.09L284.908 116.097L283.536 117.202C282.703 117.873 281.488 117.115 281.731 116.075L282.35 113.426L279.967 115.948C279.45 116.497 278.547 116.391 278.17 115.738L275.028 110.29L272.386 107.418H270.157C270.036 107.418 269.917 107.398 269.802 107.361L267.275 106.524H262.775L257.922 108.364C257.794 108.413 257.659 108.437 257.522 108.437H253.565L249.594 110.381L249.137 112.872C249.038 113.404 248.573 113.792 248.03 113.792H238.78L238.787 113.783ZM312.179 133.705C312.944 133.546 313.632 134.191 313.523 134.961L312.361 143.092C312.319 143.389 312.157 143.659 311.914 143.837L309.272 145.781C309.08 145.923 308.844 146 308.604 146H305.848C305.423 146 305.035 145.763 304.843 145.386L302.98 141.726C302.935 141.635 302.902 141.54 302.882 141.44L301.579 134.979C301.418 134.186 302.128 133.489 302.922 133.661L307.552 134.658L312.181 133.703L312.179 133.705Z" fill="#DCDDE1"/>
<path opacity="0.5" fill-rule="evenodd" clip-rule="evenodd" d="M46 44H194V27H46V44Z" fill="#8A8A8A"/>
<path fill-rule="evenodd" clip-rule="evenodd" d="M30 192H343V164H30V192Z" fill="#666666"/>
<path fill-rule="evenodd" clip-rule="evenodd" d="M46 63H165V57H46V63Z" fill="#DCDDE1"/>
<path fill-rule="evenodd" clip-rule="evenodd" d="M46 78H205V72H46V78Z" fill="#DCDDE1"/>
<path fill-rule="evenodd" clip-rule="evenodd" d="M46 93H177V87H46V93Z" fill="#DCDDE1"/>
<path fill-rule="evenodd" clip-rule="evenodd" d="M139 150H243V144H139V150Z" fill="#DCDDE1"/>
<path fill-rule="evenodd" clip-rule="evenodd" d="M120.594 112L120.594 150L122.637 150L122.637 112L120.594 112Z" fill="#C1C1C1"/>
<path fill-rule="evenodd" clip-rule="evenodd" d="M115.145 112L115.145 150L119.913 150L119.913 112L115.145 112Z" fill="#C1C1C1"/>
<path fill-rule="evenodd" clip-rule="evenodd" d="M89.9397 112L89.9397 150L94.708 150L94.708 112L89.9397 112Z" fill="#C1C1C1"/>
<path fill-rule="evenodd" clip-rule="evenodd" d="M66.0967 112L66.0967 150L70.865 150L70.865 112L66.0967 112Z" fill="#C1C1C1"/>
<path fill-rule="evenodd" clip-rule="evenodd" d="M47.0227 112L47.0227 150L51.791 150L51.791 112L47.0227 112Z" fill="#C1C1C1"/>
<path fill-rule="evenodd" clip-rule="evenodd" d="M123.319 112L123.319 150L124 150L124 112L123.319 112Z" fill="#C1C1C1"/>
<path fill-rule="evenodd" clip-rule="evenodd" d="M113.782 112L113.782 150L114.463 150L114.463 112L113.782 112Z" fill="#C1C1C1"/>
<path fill-rule="evenodd" clip-rule="evenodd" d="M109.013 112L109.013 150L109.694 150L109.694 112L109.013 112Z" fill="#C1C1C1"/>
<path fill-rule="evenodd" clip-rule="evenodd" d="M104.245 112L104.245 150L104.926 150L104.926 112L104.245 112Z" fill="#C1C1C1"/>
<path fill-rule="evenodd" clip-rule="evenodd" d="M99.4764 112L99.4764 150L100.158 150L100.158 112L99.4764 112Z" fill="#C1C1C1"/>
<path fill-rule="evenodd" clip-rule="evenodd" d="M102.201 112L102.201 150L102.882 150L102.882 112L102.201 112Z" fill="#C1C1C1"/>
<path fill-rule="evenodd" clip-rule="evenodd" d="M94.7079 112L94.7079 150L95.3892 150L95.3892 112L94.7079 112Z" fill="#C1C1C1"/>
<path fill-rule="evenodd" clip-rule="evenodd" d="M89.9396 112L89.9396 150L90.6208 150L90.6208 112L89.9396 112Z" fill="#C1C1C1"/>
<path fill-rule="evenodd" clip-rule="evenodd" d="M85.1713 112L85.1713 150L85.852 150L85.8521 112L85.1713 112Z" fill="#C1C1C1"/>
<path fill-rule="evenodd" clip-rule="evenodd" d="M86.5333 112L86.5333 150L87.2146 150L87.2146 112L86.5333 112Z" fill="#C1C1C1"/>
<path fill-rule="evenodd" clip-rule="evenodd" d="M83.8082 112L83.8082 150L84.4895 150L84.4895 112L83.8082 112Z" fill="#C1C1C1"/>
<path fill-rule="evenodd" clip-rule="evenodd" d="M80.402 112L80.402 150L81.0833 150L81.0833 112L80.402 112Z" fill="#C1C1C1"/>
<path fill-rule="evenodd" clip-rule="evenodd" d="M79.7211 112L79.7211 150L80.4019 150L80.4019 112L79.7211 112Z" fill="#C1C1C1"/>
<path fill-rule="evenodd" clip-rule="evenodd" d="M75.6337 112L75.6337 150L76.3149 150L76.3149 112L75.6337 112Z" fill="#C1C1C1"/>
<path fill-rule="evenodd" clip-rule="evenodd" d="M57.9218 112L57.9218 150L58.603 150L58.603 112L57.9218 112Z" fill="#C1C1C1"/>
<path fill-rule="evenodd" clip-rule="evenodd" d="M63.3722 112L63.3722 150L64.0535 150L64.0535 112L63.3722 112Z" fill="#C1C1C1"/>
<path fill-rule="evenodd" clip-rule="evenodd" d="M76.996 112L76.996 150L77.6772 150L77.6772 112L76.996 112Z" fill="#C1C1C1"/>
<path fill-rule="evenodd" clip-rule="evenodd" d="M70.8651 112L70.8651 150L71.5464 150L71.5464 112L70.8651 112Z" fill="#C1C1C1"/>
<path fill-rule="evenodd" clip-rule="evenodd" d="M66.0971 112L66.0971 150L66.7778 150L66.7778 112L66.0971 112Z" fill="#C1C1C1"/>
<path fill-rule="evenodd" clip-rule="evenodd" d="M61.3283 112L61.3283 150L62.0095 150L62.0095 112L61.3283 112Z" fill="#C1C1C1"/>
<path fill-rule="evenodd" clip-rule="evenodd" d="M104.245 112L104.245 150L106.289 150L106.289 112L104.245 112Z" fill="#C1C1C1"/>
<path fill-rule="evenodd" clip-rule="evenodd" d="M96.0702 112L96.0702 150L98.1135 150L98.1135 112L96.0702 112Z" fill="#C1C1C1"/>
<path fill-rule="evenodd" clip-rule="evenodd" d="M111.057 112L111.057 150L113.101 150L113.101 112L111.057 112Z" fill="#C1C1C1"/>
<path fill-rule="evenodd" clip-rule="evenodd" d="M106.288 112L106.288 150L108.332 150L108.332 112L106.288 112Z" fill="#C1C1C1"/>
<path fill-rule="evenodd" clip-rule="evenodd" d="M87.8957 112L87.8957 150L89.9395 150L89.9395 112L87.8957 112Z" fill="#C1C1C1"/>
<path fill-rule="evenodd" clip-rule="evenodd" d="M71.5466 112L71.5466 150L73.5898 150L73.5898 112L71.5466 112Z" fill="#C1C1C1"/>
<path fill-rule="evenodd" clip-rule="evenodd" d="M59.2848 112L59.2848 150L61.3281 150L61.3281 112L59.2848 112Z" fill="#C1C1C1"/>
<path fill-rule="evenodd" clip-rule="evenodd" d="M66.7775 112L66.7775 150L68.8213 150L68.8213 112L66.7775 112Z" fill="#C1C1C1"/>
<path fill-rule="evenodd" clip-rule="evenodd" d="M55.1974 112L55.1974 150L57.2412 150L57.2412 112L55.1974 112Z" fill="#C1C1C1"/>
<path fill-rule="evenodd" clip-rule="evenodd" d="M52.4728 112L52.4728 150L54.5161 150L54.5161 112L52.4728 112Z" fill="#C1C1C1"/>
</g>
</g>
</g>
</g>
<defs>
<filter id="filter0_d_144_621" x="0" y="0" width="373" height="259.85" filterUnits="userSpaceOnUse" color-interpolation-filters="sRGB">
<feFlood flood-opacity="0" result="BackgroundImageFix"/>
<feColorMatrix in="SourceAlpha" type="matrix" values="0 0 0 0 0 0 0 0 0 0 0 0 0 0 0 0 0 0 127 0" result="hardAlpha"/>
<feOffset dy="20"/>
<feGaussianBlur stdDeviation="15"/>
<feComposite in2="hardAlpha" operator="out"/>
<feColorMatrix type="matrix" values="0 0 0 0 0 0 0 0 0 0 0 0 0 0 0 0 0 0 0.25 0"/>
<feBlend mode="normal" in2="BackgroundImageFix" result="effect1_dropShadow_144_621"/>
<feBlend mode="normal" in="SourceGraphic" in2="effect1_dropShadow_144_621" result="shape"/>
</filter>
<filter id="filter1_d_144_621" x="0" y="0" width="373" height="260" filterUnits="userSpaceOnUse" color-interpolation-filters="sRGB">
<feFlood flood-opacity="0" result="BackgroundImageFix"/>
<feColorMatrix in="SourceAlpha" type="matrix" values="0 0 0 0 0 0 0 0 0 0 0 0 0 0 0 0 0 0 127 0" result="hardAlpha"/>
<feOffset dy="20"/>
<feGaussianBlur stdDeviation="15"/>
<feComposite in2="hardAlpha" operator="out"/>
<feColorMatrix type="matrix" values="0 0 0 0 0 0 0 0 0 0 0 0 0 0 0 0 0 0 0.25 0"/>
<feBlend mode="normal" in2="BackgroundImageFix" result="effect1_dropShadow_144_621"/>
<feBlend mode="normal" in="SourceGraphic" in2="effect1_dropShadow_144_621" result="shape"/>
</filter>
<clipPath id="clip0_144_621">
<rect x="30" y="10" width="313" height="199.85" rx="15" fill="white"/>
</clipPath>
<clipPath id="clip1_144_621">
<rect x="30" y="10" width="313" height="200" rx="15" fill="white"/>
</clipPath>
</defs>
</svg>
