<svg width="373" height="260" viewBox="0 0 373 260" fill="none" xmlns="http://www.w3.org/2000/svg">
<g filter="url(#filter0_d_144_555)">
<g clip-path="url(#clip0_144_555)">
<path fill-rule="evenodd" clip-rule="evenodd" d="M343 26.2719C343 17.2854 335.705 10 326.707 10H46.2937C37.2945 10 30 17.2854 30 26.2719V39.8018H343V26.2719Z" fill="#666666"/>
<path fill-rule="evenodd" clip-rule="evenodd" d="M119.329 30.6082C118.726 30.8602 117.745 31.1682 116.245 31.1682C113.708 31.1682 110.862 29.8942 110.862 26.5342C110.862 23.2442 113.413 21.7322 116.273 21.7322C117.296 21.7322 118.516 21.9842 119.259 22.3202V23.6922C118.334 23.2162 117.31 22.9642 116.245 22.9642C114.03 22.9642 112.25 24.1402 112.25 26.5202C112.25 28.9982 114.408 29.9362 116.343 29.9362C117.507 29.9362 118.123 29.7962 119.329 29.3202V30.6082ZM54.7449 26.4642C54.7449 29.6982 52.2776 31.0002 49.6281 31.0002H46.6421V21.9002H49.7402C52.3898 21.9002 54.7449 23.0762 54.7449 26.4642ZM47.9598 29.7962H49.3477C52.0392 29.7962 53.3009 28.5362 53.3009 26.4502C53.3009 24.4062 52.1794 23.1042 49.4738 23.1042H47.9598V29.7962ZM57.9552 31.0002V27.6682H59.9598C60.9552 28.7182 61.9505 29.9502 62.6654 31.0002H64.4178C63.4224 29.6422 62.3851 28.3822 61.6 27.5422C62.7075 27.2622 63.843 26.3942 63.843 24.7282C63.843 22.3762 61.6 21.9002 60.4645 21.9002H56.6374V31.0002H57.9552ZM57.9551 26.4642H60.2822C61.1654 26.4642 62.4692 26.2122 62.4692 24.7702C62.4692 23.5102 61.4178 23.1042 60.3383 23.1042H57.9551V26.4642ZM67.2075 31.0002V21.9002H65.8897V31.0002H67.2075ZM77.6936 21.9002C76.0815 26.7582 74.1329 30.3982 73.7544 31.0002H72.1983C71.5955 30.0202 69.6329 26.0582 68.259 21.9002H69.6749C69.9413 22.7822 71.6656 27.3602 72.9974 29.8102C74.3698 27.3842 75.366 24.5825 76.2623 22.0619L76.2623 22.0618L76.2624 22.0617L76.2624 22.0617L76.3198 21.9002H77.6936ZM85.1795 31.0002V29.7962H80.0626V26.9122H84.7729V25.7222H80.0626V23.1042H85.1795V21.9002H78.7449V31.0002H85.1795ZM88.4598 27.6682V31.0002H87.1421V21.9002H90.9692C92.1047 21.9002 94.3477 22.3762 94.3477 24.7282C94.3477 26.3942 93.2122 27.2622 92.1047 27.5422C92.8897 28.3822 93.9271 29.6422 94.9225 31.0002H93.1701C92.4552 29.9502 91.4598 28.7182 90.4645 27.6682H88.4598ZM90.787 26.4642H88.4599V23.1042H90.843C91.9225 23.1042 92.9739 23.5102 92.9739 24.7702C92.9739 26.2122 91.6702 26.4642 90.787 26.4642ZM106.46 29.7962V31.0002H99.9131V21.9002H101.231V29.7962H106.46ZM109.039 31.0002V21.9002H107.722V31.0002H109.039ZM144.245 31.1682C145.745 31.1682 146.726 30.8602 147.329 30.6082V29.3202C146.124 29.7962 145.507 29.9362 144.343 29.9362C142.409 29.9362 140.25 28.9982 140.25 26.5202C140.25 24.1402 142.03 22.9642 144.245 22.9642C145.31 22.9642 146.334 23.2162 147.259 23.6922V22.3202C146.516 21.9842 145.296 21.7322 144.273 21.7322C141.413 21.7322 138.862 23.2442 138.862 26.5342C138.862 29.8942 141.708 31.1682 144.245 31.1682ZM127.586 29.7962V31.0002H121.151V21.9002H127.586V23.1042H122.469V25.7222H127.179V26.9122H122.469V29.7962H127.586ZM130.852 31.0002V23.6642L136.376 31.0002H137.483V21.9002H136.18V28.7042L131.063 21.9002H129.549V31.0002H130.852ZM155.435 29.7962V31.0002H149V21.9002H155.435V23.1042H150.318V25.7222H155.028V26.9122H150.318V29.7962H155.435Z" fill="white"/>
<path fill-rule="evenodd" clip-rule="evenodd" d="M30 39.8016V193.728C30 202.716 37.2951 210 46.2937 210H326.707C335.705 210 343 202.716 343 193.728V39.8016H30Z" fill="#F5F6FA"/>
<path fill-rule="evenodd" clip-rule="evenodd" d="M225.982 178.907H329.152V63.6423H225.982V178.907Z" fill="#DCDDE1"/>
<path fill-rule="evenodd" clip-rule="evenodd" d="M309.974 150.956C309.974 148.561 303.455 142.853 288.301 137.729V127.484C288.301 127.484 292.94 123.638 292.94 116.808C294.832 116.808 296.725 109.98 292.94 108.272C292.94 107.259 295.62 101.567 291.835 94.507C287.379 86.1971 268 87.6593 264.796 94.0133C260.277 100.794 262.631 106.888 262.631 108.272C258.845 109.98 260.738 116.808 262.631 116.808C262.631 123.638 267.27 126.896 267.27 126.896V137.729C252.116 142.853 245.597 148.309 245.597 150.956C245.597 158.02 309.974 159.329 309.974 150.956Z" fill="#C71444"/>
<path fill-rule="evenodd" clip-rule="evenodd" d="M86.5505 170.818C86.3573 172.286 85.9632 173.727 85.3712 175.085C84.8547 176.271 84.2123 177.52 83.2385 178.399C82.7659 178.825 82.1845 179.165 81.5433 179.241C81.0508 179.3 80.8435 179.003 80.6854 178.59C80.5911 178.345 80.5238 178.09 80.4834 177.83C80.3153 176.756 80.6087 175.63 81.2083 174.731C81.8659 173.747 82.9633 173 84.1743 172.97C85.685 172.931 86.5593 174.258 87.3065 175.37C87.9442 176.319 88.7049 177.308 89.9141 177.485C90.379 177.554 90.8768 177.489 91.2714 177.218C91.5045 177.059 91.5701 176.799 91.6872 176.548C91.85 176.2 92.0198 175.855 92.1961 175.513C92.9192 174.113 93.7555 172.77 94.6935 171.503C95.6059 170.271 96.6295 168.859 98.1145 168.293C98.0735 168.262 98.0325 168.23 97.9921 168.199C98.3522 171.707 98.3803 175.235 98.4043 178.758C98.4049 178.839 98.5115 178.889 98.5701 178.826C100.184 177.106 101.798 175.384 103.413 173.663C104.155 172.872 104.912 172.106 105.986 171.796C107.005 171.501 108.089 171.565 109.134 171.63C109.118 171.569 109.102 171.509 109.085 171.449C105.811 173.21 103.044 175.837 101.114 179.011C101.055 179.107 101.186 179.201 101.266 179.128C103.039 177.499 104.5 175.592 106.022 173.738C107.391 172.072 108.89 170.435 110.885 169.521C110.852 169.465 110.82 169.41 110.787 169.354C108.746 170.579 107.296 172.588 105.897 174.463C104.355 176.529 102.923 178.677 101.612 180.895C100.32 183.079 99.0713 185.33 98.1607 187.702C97.7087 188.88 97.4059 190.084 97.1249 191.311C96.8596 192.466 96.5223 193.6 95.8079 194.563C94.365 196.509 91.9138 197.501 89.5639 197.745C89.5949 197.786 89.626 197.827 89.657 197.868C90.1243 196.13 91.2357 194.573 92.2616 193.119C93.2489 191.718 94.3281 190.382 95.4876 189.121C97.7649 186.642 100.351 184.448 103.173 182.61C103.865 182.159 104.571 181.73 105.29 181.323C106.041 180.898 106.848 180.539 107.524 179.996C108.243 179.418 108.811 178.659 109.389 177.947C109.981 177.216 110.604 176.488 111.141 175.715C111.31 175.472 111.479 175.16 111.353 174.859C111.231 174.566 110.909 174.458 110.623 174.394C109.726 174.194 108.787 174.189 107.875 174.265C105.931 174.426 103.995 174.892 102.105 175.356C97.8018 176.413 93.6079 177.858 89.4228 179.3C89.4538 179.354 89.4854 179.408 89.5171 179.462C91.0466 177.585 92.9919 176.128 94.9248 174.694C95.0051 174.635 94.9623 174.474 94.8505 174.517C90.9453 176.015 87.1015 177.672 83.3339 179.487C82.2541 180.007 81.1808 180.54 80.1139 181.086C80.029 181.128 80.0676 181.272 80.1625 181.266C82.8585 181.111 85.3677 179.943 87.4646 178.285C89.7325 176.49 91.4676 174.135 92.9386 171.668C93.8181 170.194 94.6104 168.67 95.4015 167.147C95.4589 167.036 95.2914 166.938 95.234 167.049C92.6587 172.007 89.811 177.358 84.5473 179.903C83.1735 180.567 81.6885 180.985 80.1625 181.072C80.1789 181.132 80.1953 181.192 80.2117 181.253C83.9394 179.349 87.7445 177.596 91.6175 176.007C92.7073 175.56 93.8023 175.126 94.902 174.704C94.8768 174.645 94.8522 174.586 94.8271 174.527C92.8812 175.97 90.9195 177.435 89.38 179.325C89.3244 179.393 89.3736 179.522 89.4743 179.487C93.0744 178.246 96.6781 177.005 100.355 176.008C102.191 175.511 104.045 175.072 105.917 174.733C106.892 174.557 107.878 174.414 108.871 174.415C109.379 174.415 109.888 174.454 110.388 174.545C110.584 174.582 110.803 174.614 110.976 174.721C111.354 174.952 111.165 175.342 110.973 175.618C110.422 176.41 109.782 177.157 109.174 177.906C108.62 178.586 108.076 179.308 107.386 179.859C106.684 180.42 105.832 180.79 105.055 181.234C104.353 181.634 103.663 182.057 102.986 182.5C100.303 184.257 97.8311 186.336 95.6375 188.674C94.4054 189.987 93.2612 191.383 92.216 192.849C91.1344 194.366 89.9592 195.997 89.4696 197.817C89.455 197.872 89.4995 197.946 89.5639 197.939C91.5519 197.733 93.5487 197.025 95.0513 195.676C95.7968 195.006 96.3829 194.183 96.7577 193.254C97.2373 192.062 97.4024 190.775 97.7497 189.544C98.4547 187.041 99.675 184.707 100.942 182.448C102.222 180.165 103.626 177.951 105.146 175.82C105.996 174.63 106.874 173.453 107.808 172.327C108.699 171.253 109.681 170.244 110.885 169.521C110.994 169.456 110.899 169.303 110.787 169.354C108.811 170.259 107.312 171.87 105.952 173.518C104.404 175.397 102.928 177.337 101.129 178.991C101.179 179.03 101.23 179.069 101.281 179.108C103.195 175.961 105.938 173.363 109.184 171.616C109.273 171.568 109.226 171.441 109.134 171.436C108.106 171.373 107.046 171.314 106.039 171.58C105.004 171.853 104.232 172.515 103.511 173.276C101.808 175.07 100.125 176.885 98.433 178.689C98.4881 178.712 98.5431 178.735 98.5988 178.758C98.5747 175.235 98.5466 171.707 98.1859 168.199C98.1801 168.143 98.128 168.081 98.063 168.106C96.7513 168.606 95.8348 169.713 94.9951 170.789C94.0547 171.993 93.2074 173.268 92.4648 174.603C92.0907 175.274 91.7428 175.961 91.4225 176.659C91.2457 177.046 90.9611 177.231 90.5442 177.297C90.1992 177.351 89.8432 177.3 89.5147 177.19C88.1292 176.725 87.5337 175.203 86.6805 174.149C86.2812 173.656 85.8004 173.203 85.2043 172.959C84.5631 172.699 83.8516 172.739 83.2016 172.95C82.1745 173.283 81.3371 174.051 80.8248 174.991C80.3217 175.914 80.1162 177.009 80.3253 178.044C80.4125 178.476 80.5765 179.153 81.0063 179.373C81.4706 179.61 82.1681 179.325 82.5873 179.101C83.9014 178.4 84.7083 176.949 85.3237 175.655C86.0504 174.127 86.5248 172.494 86.7449 170.818C86.7607 170.694 86.5663 170.696 86.5505 170.818" fill="#576573"/>
<path fill-rule="evenodd" clip-rule="evenodd" d="M45.8147 66.954H67.0348V60.9938H45.8147V66.954Z" fill="#8A8A8A"/>
<path fill-rule="evenodd" clip-rule="evenodd" d="M46.0215 82H148.158V76H46.0215V82Z" fill="#DCDDE1"/>
<path fill-rule="evenodd" clip-rule="evenodd" d="M46.0215 97H192.216V91H46.0215V97Z" fill="#DCDDE1"/>
<path fill-rule="evenodd" clip-rule="evenodd" d="M46.0215 113H81.0682V107H46.0215V113Z" fill="#8A8A8A"/>
<path fill-rule="evenodd" clip-rule="evenodd" d="M46.0215 128H191.215V122H46.0215V128Z" fill="#DCDDE1"/>
<path fill-rule="evenodd" clip-rule="evenodd" d="M160.909 136L160.909 158L164.073 158L164.073 136L160.909 136Z" fill="#C1C1C1"/>
<path fill-rule="evenodd" clip-rule="evenodd" d="M152.474 136L152.474 158L159.855 158L159.855 136L152.474 136Z" fill="#C1C1C1"/>
<path fill-rule="evenodd" clip-rule="evenodd" d="M113.457 136L113.457 158L120.838 158L120.838 136L113.457 136Z" fill="#C1C1C1"/>
<path fill-rule="evenodd" clip-rule="evenodd" d="M76.5492 136L76.5492 158L83.9304 158L83.9304 136L76.5492 136Z" fill="#C1C1C1"/>
<path fill-rule="evenodd" clip-rule="evenodd" d="M47.0228 136L47.0228 158L54.4041 158L54.4041 136L47.0228 136Z" fill="#C1C1C1"/>
<path fill-rule="evenodd" clip-rule="evenodd" d="M165.127 136L165.127 158L166.182 158L166.182 136L165.127 136Z" fill="#C1C1C1"/>
<path fill-rule="evenodd" clip-rule="evenodd" d="M150.364 136L150.364 158L151.418 158L151.418 136L150.364 136Z" fill="#C1C1C1"/>
<path fill-rule="evenodd" clip-rule="evenodd" d="M142.983 136L142.983 158L144.037 158L144.037 136L142.983 136Z" fill="#C1C1C1"/>
<path fill-rule="evenodd" clip-rule="evenodd" d="M135.601 136L135.601 158L136.656 158L136.656 136L135.601 136Z" fill="#C1C1C1"/>
<path fill-rule="evenodd" clip-rule="evenodd" d="M128.219 136L128.219 158L129.274 158L129.274 136L128.219 136Z" fill="#C1C1C1"/>
<path fill-rule="evenodd" clip-rule="evenodd" d="M132.438 136L132.438 158L133.492 158L133.492 136L132.438 136Z" fill="#C1C1C1"/>
<path fill-rule="evenodd" clip-rule="evenodd" d="M120.838 136L120.838 158L121.893 158L121.893 136L120.838 136Z" fill="#C1C1C1"/>
<path fill-rule="evenodd" clip-rule="evenodd" d="M113.457 136L113.457 158L114.511 158L114.511 136L113.457 136Z" fill="#C1C1C1"/>
<path fill-rule="evenodd" clip-rule="evenodd" d="M106.076 136L106.076 158L107.129 158L107.129 136L106.076 136Z" fill="#C1C1C1"/>
<path fill-rule="evenodd" clip-rule="evenodd" d="M108.184 136L108.184 158L109.239 158L109.239 136L108.184 136Z" fill="#C1C1C1"/>
<path fill-rule="evenodd" clip-rule="evenodd" d="M103.966 136L103.966 158L105.02 158L105.02 136L103.966 136Z" fill="#C1C1C1"/>
<path fill-rule="evenodd" clip-rule="evenodd" d="M98.693 136L98.693 158L99.7476 158L99.7476 136L98.693 136Z" fill="#C1C1C1"/>
<path fill-rule="evenodd" clip-rule="evenodd" d="M97.6391 136L97.6391 158L98.6929 158L98.6929 136L97.6391 136Z" fill="#C1C1C1"/>
<path fill-rule="evenodd" clip-rule="evenodd" d="M91.3116 136L91.3116 158L92.3662 158L92.3662 136L91.3116 136Z" fill="#C1C1C1"/>
<path fill-rule="evenodd" clip-rule="evenodd" d="M63.8944 136L63.8944 158L64.949 158L64.949 136L63.8944 136Z" fill="#C1C1C1"/>
<path fill-rule="evenodd" clip-rule="evenodd" d="M72.3309 136L72.3309 158L73.3855 158L73.3855 136L72.3309 136Z" fill="#C1C1C1"/>
<path fill-rule="evenodd" clip-rule="evenodd" d="M93.4208 136L93.4208 158L94.4753 158L94.4753 136L93.4208 136Z" fill="#C1C1C1"/>
<path fill-rule="evenodd" clip-rule="evenodd" d="M83.9305 136L83.9305 158L84.9851 158L84.9851 136L83.9305 136Z" fill="#C1C1C1"/>
<path fill-rule="evenodd" clip-rule="evenodd" d="M76.5492 136L76.5492 158L77.603 158L77.603 136L76.5492 136Z" fill="#C1C1C1"/>
<path fill-rule="evenodd" clip-rule="evenodd" d="M69.1671 136L69.1671 158L70.2217 158L70.2217 136L69.1671 136Z" fill="#C1C1C1"/>
<path fill-rule="evenodd" clip-rule="evenodd" d="M135.601 136L135.601 158L138.765 158L138.765 136L135.601 136Z" fill="#C1C1C1"/>
<path fill-rule="evenodd" clip-rule="evenodd" d="M122.947 136L122.947 158L126.11 158L126.11 136L122.947 136Z" fill="#C1C1C1"/>
<path fill-rule="evenodd" clip-rule="evenodd" d="M146.146 136L146.146 158L149.31 158L149.31 136L146.146 136Z" fill="#C1C1C1"/>
<path fill-rule="evenodd" clip-rule="evenodd" d="M138.765 136L138.765 158L141.928 158L141.928 136L138.765 136Z" fill="#C1C1C1"/>
<path fill-rule="evenodd" clip-rule="evenodd" d="M110.293 136L110.293 158L113.457 158L113.457 136L110.293 136Z" fill="#C1C1C1"/>
<path fill-rule="evenodd" clip-rule="evenodd" d="M84.985 136L84.985 158L88.1479 158L88.1479 136L84.985 136Z" fill="#C1C1C1"/>
<path fill-rule="evenodd" clip-rule="evenodd" d="M66.0043 136L66.0043 158L69.1672 158L69.1672 136L66.0043 136Z" fill="#C1C1C1"/>
<path fill-rule="evenodd" clip-rule="evenodd" d="M77.6029 136L77.6029 158L80.7666 158L80.7666 136L77.6029 136Z" fill="#C1C1C1"/>
<path fill-rule="evenodd" clip-rule="evenodd" d="M59.6769 136L59.6769 158L62.8406 158L62.8406 136L59.6769 136Z" fill="#C1C1C1"/>
<path fill-rule="evenodd" clip-rule="evenodd" d="M55.4594 136L55.4594 158L58.6223 158L58.6223 136L55.4594 136Z" fill="#C1C1C1"/>
</g>
</g>
<defs>
<filter id="filter0_d_144_555" x="0" y="0" width="373" height="260" filterUnits="userSpaceOnUse" color-interpolation-filters="sRGB">
<feFlood flood-opacity="0" result="BackgroundImageFix"/>
<feColorMatrix in="SourceAlpha" type="matrix" values="0 0 0 0 0 0 0 0 0 0 0 0 0 0 0 0 0 0 127 0" result="hardAlpha"/>
<feOffset dy="20"/>
<feGaussianBlur stdDeviation="15"/>
<feComposite in2="hardAlpha" operator="out"/>
<feColorMatrix type="matrix" values="0 0 0 0 0 0 0 0 0 0 0 0 0 0 0 0 0 0 0.25 0"/>
<feBlend mode="normal" in2="BackgroundImageFix" result="effect1_dropShadow_144_555"/>
<feBlend mode="normal" in="SourceGraphic" in2="effect1_dropShadow_144_555" result="shape"/>
</filter>
<clipPath id="clip0_144_555">
<rect x="30" y="10" width="313" height="200" rx="15" fill="white"/>
</clipPath>
</defs>
</svg>
