<svg width="100" height="84" viewBox="0 0 100 84" fill="none" xmlns="http://www.w3.org/2000/svg">
<path fill-rule="evenodd" clip-rule="evenodd" d="M58.2611 45.1784C58.1865 45.1914 57.863 45.2021 57.7359 45.2021H47.4867V47.5742H57.8943C57.9802 47.5742 58.5794 47.5693 58.7166 47.5582C60.8399 47.3683 61.8073 45.6015 61.8073 44.0395C61.8073 42.4551 60.8004 40.7523 58.876 40.5637C58.4985 40.5277 58.1901 40.5259 58.0395 40.5282H51.241C50.933 40.5282 50.6145 40.5027 50.4844 40.4685C49.9435 40.3227 49.7508 39.8544 49.7508 39.4649C49.7508 39.1069 49.9481 38.6301 50.5046 38.4645C50.6693 38.4149 50.8418 38.4128 51.216 38.4128H61.0361V36.0626H51.0573C50.6342 36.0626 50.3265 36.0788 50.0599 36.1147C48.3502 36.3479 47.1565 37.7273 47.1565 39.4698C47.1565 40.8948 48.0521 42.5584 50.0195 42.8433C50.3706 42.8937 50.8773 42.8901 51.0907 42.8901L57.7199 42.8897C57.8452 42.8897 58.1397 42.8971 58.2006 42.9057C58.9443 43.0084 59.2092 43.5677 59.2092 44.0565C59.2092 44.5315 58.9155 45.0628 58.2611 45.1784" fill="black"/>
<path fill-rule="evenodd" clip-rule="evenodd" d="M38.8686 45.1784C38.7947 45.1914 38.4709 45.2021 38.3434 45.2021H28.0947V47.5742H38.5031C38.589 47.5742 39.1888 47.5693 39.3249 47.5582C41.4486 47.3683 42.4163 45.6011 42.4163 44.0395C42.4163 42.4551 41.4092 40.7523 39.4839 40.5637C39.1064 40.5277 38.7976 40.5259 38.6478 40.5282H31.8489C31.5409 40.5282 31.2226 40.5027 31.0928 40.4685C30.5522 40.3227 30.3596 39.8544 30.3596 39.4649C30.3596 39.1069 30.5564 38.6301 31.1113 38.4645C31.2772 38.4149 31.4497 38.4128 31.8243 38.4128H41.6436V36.0626H31.6661C31.2426 36.0626 30.9348 36.0788 30.6686 36.1147C28.9585 36.3475 27.7644 37.7273 27.7644 39.4698C27.7644 40.8948 28.66 42.5584 30.6272 42.8433C30.9785 42.8937 31.4825 42.8893 31.6991 42.8901L38.3274 42.8897C38.4528 42.8897 38.748 42.8971 38.8089 42.9057C39.5522 43.0084 39.8169 43.5677 39.8169 44.0565C39.8169 44.5315 39.5234 45.0632 38.8686 45.1784" fill="black"/>
<mask id="mask0_144_745" style="mask-type:alpha" maskUnits="userSpaceOnUse" x="0" y="0" width="100" height="84">
<path fill-rule="evenodd" clip-rule="evenodd" d="M0 83.6445H99.9884V0H0V83.6445Z" fill="white"/>
</mask>
<g mask="url(#mask0_144_745)">
<path fill-rule="evenodd" clip-rule="evenodd" d="M20.1655 47.6372H22.7399V35.9996H20.1655V47.6372Z" fill="black"/>
<path fill-rule="evenodd" clip-rule="evenodd" d="M14.4695 47.6372V36.0004H11.8943V44.6725L3.31513 36.0004H0V47.6372H2.57605V38.9065L11.2166 47.6372H14.4695Z" fill="black"/>
<path fill-rule="evenodd" clip-rule="evenodd" d="M97.4141 36.0004V44.6729L88.8337 36.0004H85.5194V47.6372H88.0946V38.9065L96.7352 47.6372H99.9885V36.0004H97.4141Z" fill="black"/>
<path fill-rule="evenodd" clip-rule="evenodd" d="M76.3918 43.3589H70.5754L73.4869 38.6828L76.3918 43.3589ZM72.0979 35.9996L64.8311 47.6372H67.9552L69.2472 45.5591H77.7224L79.0149 47.6372H82.1357L74.8724 35.9996H72.0979Z" fill="black"/>
<path fill-rule="evenodd" clip-rule="evenodd" d="M14.3274 29.3866C19.5186 14.2144 33.8568 4.02068 50.0066 4.02068C66.1564 4.02068 80.4946 14.2144 85.6858 29.3866L85.7289 29.5127H97.0873V28.1486L92.3623 27.5988C89.4501 27.2589 88.8272 25.9759 88.0375 24.3482L87.8459 23.9551C81.0186 9.40303 66.1656 -0.00012207 50.0066 -0.00012207C33.8463 -0.00012207 18.9933 9.40387 12.1677 23.9551L11.9753 24.349C11.1872 25.9747 10.5648 27.2589 7.6509 27.5988L2.9259 28.1486V29.5127H14.2843L14.3274 29.3866Z" fill="black"/>
<path fill-rule="evenodd" clip-rule="evenodd" d="M85.7272 54.1354L85.6841 54.2615C80.4921 69.4325 66.1551 79.6245 50.0066 79.6245H50.0024C33.8528 79.6222 19.5156 69.4262 14.3267 54.2533L14.2835 54.1272L2.9259 54.1266V55.4902L7.64922 56.0413C10.5643 56.3816 11.186 57.6657 11.9732 59.2926L12.1641 59.6833C18.9896 74.2377 33.8419 83.643 50.0015 83.6444H50.0078C66.1639 83.6444 81.0164 74.243 87.8429 59.6963L88.0362 59.2999C88.8242 57.6743 89.4469 56.39 92.3606 56.051L97.087 55.5007V54.1371L85.7272 54.1354Z" fill="black"/>
</g>
</svg>
