<svg width="309" height="201" viewBox="0 0 309 201" fill="none" xmlns="http://www.w3.org/2000/svg">
<g filter="url(#filter0_d_144_671)">
<rect x="30" y="20" width="249" height="140.062" rx="20" fill="#343434"/>
<rect x="34.6687" y="24.6688" width="239.663" height="130.725" rx="14" fill="white"/>
<rect x="35" y="25" width="239.663" height="130.725" rx="14" fill="url(#paint0_linear_144_671)"/>
<path fill-rule="evenodd" clip-rule="evenodd" d="M41.6572 65.1313C41.4585 62.5197 39.2765 60.4625 36.6141 60.4625C33.9516 60.4625 31.7697 62.5197 31.571 65.1313H31.5563V65.5203V112.597H31.6916C31.6031 112.972 31.5563 113.362 31.5563 113.764C31.5563 116.557 33.8207 118.822 36.6141 118.822C39.4074 118.822 41.6719 116.557 41.6719 113.764C41.6719 113.362 41.6251 112.972 41.5366 112.597H41.6719V65.5235C41.6719 65.5224 41.6719 65.5214 41.6719 65.5203C41.6719 65.5193 41.6719 65.5182 41.6719 65.5172V65.1313H41.6572Z" fill="#343434"/>
<g filter="url(#filter1_d_144_671)">
<g clip-path="url(#clip0_144_671)">
<g filter="url(#filter2_d_144_671)">
<g clip-path="url(#clip1_144_671)">
<path fill-rule="evenodd" clip-rule="evenodd" d="M222 52.3822C222 48.3052 218.691 45 214.608 45H87.392C83.3093 45 80 48.3052 80 52.3822V58.5203H222V52.3822Z" fill="#F5F6FA"/>
<path fill-rule="evenodd" clip-rule="evenodd" d="M80 58.5202V128.353C80 132.43 83.3096 135.735 87.392 135.735H214.608C218.691 135.735 222 132.43 222 128.353V58.5202H80Z" fill="#F5F6FA"/>
<path opacity="0.5" fill-rule="evenodd" clip-rule="evenodd" d="M87.2588 60.4249H154.403V52.7125H87.2588V60.4249Z" fill="#8A8A8A"/>
<path fill-rule="evenodd" clip-rule="evenodd" d="M80 127.569H222V114.866H80V127.569Z" fill="#666666"/>
<path fill-rule="evenodd" clip-rule="evenodd" d="M87.2588 69.0447H141.246V66.3227H87.2588V69.0447Z" fill="#DCDDE1"/>
<path fill-rule="evenodd" clip-rule="evenodd" d="M87.2588 75.8499H159.393V73.1278H87.2588V75.8499Z" fill="#DCDDE1"/>
<path fill-rule="evenodd" clip-rule="evenodd" d="M87.2588 82.655H146.69V79.9329H87.2588V82.655Z" fill="#DCDDE1"/>
<path fill-rule="evenodd" clip-rule="evenodd" d="M129.45 108.514H176.633V105.792H129.45V108.514Z" fill="#DCDDE1"/>
<path fill-rule="evenodd" clip-rule="evenodd" d="M121.1 91.2748L121.1 108.514L122.027 108.514L122.027 91.2748L121.1 91.2748Z" fill="#C1C1C1"/>
<path fill-rule="evenodd" clip-rule="evenodd" d="M118.628 91.2748L118.628 108.514L120.791 108.514L120.791 91.2748L118.628 91.2748Z" fill="#C1C1C1"/>
<path fill-rule="evenodd" clip-rule="evenodd" d="M107.193 91.2748L107.193 108.514L109.356 108.514L109.356 91.2748L107.193 91.2748Z" fill="#C1C1C1"/>
<path fill-rule="evenodd" clip-rule="evenodd" d="M96.3762 91.2748L96.3762 108.514L98.5394 108.514L98.5394 91.2748L96.3762 91.2748Z" fill="#C1C1C1"/>
<path fill-rule="evenodd" clip-rule="evenodd" d="M87.7227 91.2748L87.7227 108.514L89.886 108.514L89.886 91.2748L87.7227 91.2748Z" fill="#C1C1C1"/>
<path fill-rule="evenodd" clip-rule="evenodd" d="M122.336 91.2748L122.336 108.514L122.645 108.514L122.645 91.2748L122.336 91.2748Z" fill="#C1C1C1"/>
<path fill-rule="evenodd" clip-rule="evenodd" d="M118.01 91.2748L118.01 108.514L118.319 108.514L118.319 91.2748L118.01 91.2748Z" fill="#C1C1C1"/>
<path fill-rule="evenodd" clip-rule="evenodd" d="M115.846 91.2748L115.846 108.514L116.155 108.514L116.155 91.2748L115.846 91.2748Z" fill="#C1C1C1"/>
<path fill-rule="evenodd" clip-rule="evenodd" d="M113.683 91.2748L113.683 108.514L113.992 108.514L113.992 91.2748L113.683 91.2748Z" fill="#C1C1C1"/>
<path fill-rule="evenodd" clip-rule="evenodd" d="M111.52 91.2748L111.52 108.514L111.829 108.514L111.829 91.2748L111.52 91.2748Z" fill="#C1C1C1"/>
<path fill-rule="evenodd" clip-rule="evenodd" d="M112.756 91.2748L112.756 108.514L113.065 108.514L113.065 91.2748L112.756 91.2748Z" fill="#C1C1C1"/>
<path fill-rule="evenodd" clip-rule="evenodd" d="M109.356 91.2748L109.356 108.514L109.665 108.514L109.665 91.2748L109.356 91.2748Z" fill="#C1C1C1"/>
<path fill-rule="evenodd" clip-rule="evenodd" d="M107.193 91.2748L107.193 108.514L107.502 108.514L107.502 91.2748L107.193 91.2748Z" fill="#C1C1C1"/>
<path fill-rule="evenodd" clip-rule="evenodd" d="M105.03 91.2748L105.03 108.514L105.339 108.514L105.339 91.2748L105.03 91.2748Z" fill="#C1C1C1"/>
<path fill-rule="evenodd" clip-rule="evenodd" d="M105.648 91.2748L105.648 108.514L105.957 108.514L105.957 91.2748L105.648 91.2748Z" fill="#C1C1C1"/>
<path fill-rule="evenodd" clip-rule="evenodd" d="M104.411 91.2748L104.411 108.514L104.72 108.514L104.72 91.2748L104.411 91.2748Z" fill="#C1C1C1"/>
<path fill-rule="evenodd" clip-rule="evenodd" d="M102.866 91.2748L102.866 108.514L103.175 108.514L103.175 91.2748L102.866 91.2748Z" fill="#C1C1C1"/>
<path fill-rule="evenodd" clip-rule="evenodd" d="M102.557 91.2748L102.557 108.514L102.866 108.514L102.866 91.2748L102.557 91.2748Z" fill="#C1C1C1"/>
<path fill-rule="evenodd" clip-rule="evenodd" d="M100.703 91.2748L100.703 108.514L101.012 108.514L101.012 91.2748L100.703 91.2748Z" fill="#C1C1C1"/>
<path fill-rule="evenodd" clip-rule="evenodd" d="M92.6674 91.2748L92.6674 108.514L92.9764 108.514L92.9764 91.2748L92.6674 91.2748Z" fill="#C1C1C1"/>
<path fill-rule="evenodd" clip-rule="evenodd" d="M95.1401 91.2748L95.1401 108.514L95.4492 108.514L95.4492 91.2748L95.1401 91.2748Z" fill="#C1C1C1"/>
<path fill-rule="evenodd" clip-rule="evenodd" d="M101.321 91.2748L101.321 108.514L101.63 108.514L101.63 91.2748L101.321 91.2748Z" fill="#C1C1C1"/>
<path fill-rule="evenodd" clip-rule="evenodd" d="M98.5394 91.2748L98.5394 108.514L98.8485 108.514L98.8485 91.2748L98.5394 91.2748Z" fill="#C1C1C1"/>
<path fill-rule="evenodd" clip-rule="evenodd" d="M96.3763 91.2748L96.3763 108.514L96.6852 108.514L96.6852 91.2748L96.3763 91.2748Z" fill="#C1C1C1"/>
<path fill-rule="evenodd" clip-rule="evenodd" d="M94.2129 91.2748L94.2129 108.514L94.522 108.514L94.522 91.2748L94.2129 91.2748Z" fill="#C1C1C1"/>
<path fill-rule="evenodd" clip-rule="evenodd" d="M113.683 91.2748L113.683 108.514L114.61 108.514L114.61 91.2748L113.683 91.2748Z" fill="#C1C1C1"/>
<path fill-rule="evenodd" clip-rule="evenodd" d="M109.974 91.2748L109.974 108.514L110.901 108.514L110.901 91.2748L109.974 91.2748Z" fill="#C1C1C1"/>
<path fill-rule="evenodd" clip-rule="evenodd" d="M116.774 91.2748L116.774 108.514L117.701 108.514L117.701 91.2748L116.774 91.2748Z" fill="#C1C1C1"/>
<path fill-rule="evenodd" clip-rule="evenodd" d="M114.61 91.2748L114.61 108.514L115.537 108.514L115.537 91.2748L114.61 91.2748Z" fill="#C1C1C1"/>
<path fill-rule="evenodd" clip-rule="evenodd" d="M106.266 91.2748L106.266 108.514L107.193 108.514L107.193 91.2748L106.266 91.2748Z" fill="#C1C1C1"/>
<path fill-rule="evenodd" clip-rule="evenodd" d="M98.8486 91.2748L98.8486 108.514L99.7756 108.514L99.7756 91.2748L98.8486 91.2748Z" fill="#C1C1C1"/>
<path fill-rule="evenodd" clip-rule="evenodd" d="M93.2858 91.2748L93.2858 108.514L94.2128 108.514L94.2128 91.2748L93.2858 91.2748Z" fill="#C1C1C1"/>
<path fill-rule="evenodd" clip-rule="evenodd" d="M96.685 91.2748L96.685 108.514L97.6122 108.514L97.6122 91.2748L96.685 91.2748Z" fill="#C1C1C1"/>
<path fill-rule="evenodd" clip-rule="evenodd" d="M91.4314 91.2748L91.4314 108.514L92.3586 108.514L92.3586 91.2748L91.4314 91.2748Z" fill="#C1C1C1"/>
<path fill-rule="evenodd" clip-rule="evenodd" d="M90.1953 91.2748L90.1953 108.514L91.1223 108.514L91.1223 91.2748L90.1953 91.2748Z" fill="#C1C1C1"/>
</g>
</g>
</g>
</g>
<path fill-rule="evenodd" clip-rule="evenodd" d="M72.8956 39V63.3445H66.8956V33.3795H67L67 33H96.965V39L72.8956 39Z" fill="#C71444"/>
<path fill-rule="evenodd" clip-rule="evenodd" d="M65.9557 147.977V147.169V141.977V117.204H71.9557V141.977L95.9207 141.977V147.977H65.9557Z" fill="#C71444"/>
<path fill-rule="evenodd" clip-rule="evenodd" d="M228.797 39.3794L204.024 39.3794L204.024 33.3794L233.989 33.3794L233.989 33.3794L234.797 33.3794L234.797 63.3445L228.797 63.3445L228.797 39.3794Z" fill="#C71444"/>
<g filter="url(#filter3_d_144_671)">
<ellipse cx="224.27" cy="121.973" rx="27.9734" ry="27.9734" transform="rotate(90 224.27 121.973)" fill="#C71444"/>
</g>
<path d="M219.529 129.969L238.585 110.931L240.465 112.81L219.503 133.752L209.547 123.443L211.453 121.591L219.529 129.969Z" stroke="white" stroke-width="6"/>
</g>
<defs>
<filter id="filter0_d_144_671" x="0" y="0" width="309" height="200.062" filterUnits="userSpaceOnUse" color-interpolation-filters="sRGB">
<feFlood flood-opacity="0" result="BackgroundImageFix"/>
<feColorMatrix in="SourceAlpha" type="matrix" values="0 0 0 0 0 0 0 0 0 0 0 0 0 0 0 0 0 0 127 0" result="hardAlpha"/>
<feOffset dy="10"/>
<feGaussianBlur stdDeviation="15"/>
<feComposite in2="hardAlpha" operator="out"/>
<feColorMatrix type="matrix" values="0 0 0 0 0 0 0 0 0 0 0 0 0 0 0 0 0 0 0.35 0"/>
<feBlend mode="normal" in2="BackgroundImageFix" result="effect1_dropShadow_144_671"/>
<feBlend mode="normal" in="SourceGraphic" in2="effect1_dropShadow_144_671" result="shape"/>
</filter>
<filter id="filter1_d_144_671" x="76" y="41" width="150" height="98.6667" filterUnits="userSpaceOnUse" color-interpolation-filters="sRGB">
<feFlood flood-opacity="0" result="BackgroundImageFix"/>
<feColorMatrix in="SourceAlpha" type="matrix" values="0 0 0 0 0 0 0 0 0 0 0 0 0 0 0 0 0 0 127 0" result="hardAlpha"/>
<feOffset/>
<feGaussianBlur stdDeviation="2"/>
<feComposite in2="hardAlpha" operator="out"/>
<feColorMatrix type="matrix" values="0 0 0 0 0 0 0 0 0 0 0 0 0 0 0 0 0 0 0.25 0"/>
<feBlend mode="normal" in2="BackgroundImageFix" result="effect1_dropShadow_144_671"/>
<feBlend mode="normal" in="SourceGraphic" in2="effect1_dropShadow_144_671" result="shape"/>
</filter>
<filter id="filter2_d_144_671" x="50" y="35" width="202" height="150.735" filterUnits="userSpaceOnUse" color-interpolation-filters="sRGB">
<feFlood flood-opacity="0" result="BackgroundImageFix"/>
<feColorMatrix in="SourceAlpha" type="matrix" values="0 0 0 0 0 0 0 0 0 0 0 0 0 0 0 0 0 0 127 0" result="hardAlpha"/>
<feOffset dy="20"/>
<feGaussianBlur stdDeviation="15"/>
<feComposite in2="hardAlpha" operator="out"/>
<feColorMatrix type="matrix" values="0 0 0 0 0 0 0 0 0 0 0 0 0 0 0 0 0 0 0.25 0"/>
<feBlend mode="normal" in2="BackgroundImageFix" result="effect1_dropShadow_144_671"/>
<feBlend mode="normal" in="SourceGraphic" in2="effect1_dropShadow_144_671" result="shape"/>
</filter>
<filter id="filter3_d_144_671" x="192.297" y="90" width="63.9469" height="63.9469" filterUnits="userSpaceOnUse" color-interpolation-filters="sRGB">
<feFlood flood-opacity="0" result="BackgroundImageFix"/>
<feColorMatrix in="SourceAlpha" type="matrix" values="0 0 0 0 0 0 0 0 0 0 0 0 0 0 0 0 0 0 127 0" result="hardAlpha"/>
<feOffset/>
<feGaussianBlur stdDeviation="2"/>
<feComposite in2="hardAlpha" operator="out"/>
<feColorMatrix type="matrix" values="0 0 0 0 0 0 0 0 0 0 0 0 0 0 0 0 0 0 0.25 0"/>
<feBlend mode="normal" in2="BackgroundImageFix" result="effect1_dropShadow_144_671"/>
<feBlend mode="normal" in="SourceGraphic" in2="effect1_dropShadow_144_671" result="shape"/>
</filter>
<linearGradient id="paint0_linear_144_671" x1="38.3312" y1="30.8313" x2="274.331" y2="155.331" gradientUnits="userSpaceOnUse">
<stop stop-color="#E0DDDD"/>
<stop offset="1" stop-color="#F5F5F5"/>
</linearGradient>
<clipPath id="clip0_144_671">
<rect x="80" y="45" width="142" height="90.6667" rx="15" fill="white"/>
</clipPath>
<clipPath id="clip1_144_671">
<rect x="80" y="45" width="142" height="90.7348" rx="15" fill="white"/>
</clipPath>
</defs>
</svg>
